/* XPM */
static char *_b42282016564692d4082f358718de54oXvY3NBpqaICCxcL[] = {
/* columns rows colors chars-per-pixel */
"64 64 146 2 ",
"   c #382F1C",
".  c #18171C",
"X  c #1A191D",
"o  c #25201F",
"O  c #2A241F",
"+  c #1C1B20",
"@  c #232222",
"#  c #2B2520",
"$  c #2C2A24",
"%  c #28272A",
"&  c #312921",
"*  c #363327",
"=  c #3E3123",
"-  c #313034",
";  c #453624",
":  c #4D3C25",
">  c #423F2A",
",  c #523F26",
"<  c #46432C",
"1  c #544026",
"2  c #554C2D",
"3  c #5D4828",
"4  c #4E4A30",
"5  c #534F31",
"6  c #545031",
"7  c #604929",
"8  c #7E5C2D",
"9  c #76713C",
"0  c #7E783F",
"q  c #86622F",
"w  c #89642F",
"e  c #886330",
"r  c #A46B26",
"t  c #A86F27",
"y  c #A96F28",
"u  c #AA7027",
"i  c #AB7229",
"p  c #B2762B",
"a  c #B3782B",
"s  c #BD7F2E",
"d  c #A37432",
"f  c #AE7C34",
"g  c #B27E35",
"h  c #A0853E",
"j  c #B38035",
"k  c #BC8636",
"l  c #BC8A37",
"z  c #BC8F38",
"x  c #BF953C",
"c  c #C2832F",
"v  c #C48430",
"b  c #C28937",
"n  c #CE8C33",
"m  c #C78D38",
"M  c #C98E38",
"N  c #D08E34",
"B  c #C1973D",
"V  c #CE9139",
"C  c #C39A3F",
"Z  c #D59235",
"A  c #DC9737",
"S  c #DE9837",
"D  c #D49939",
"F  c #DE9938",
"G  c #E19A38",
"H  c #EDA53D",
"J  c #F5AB3E",
"K  c #878042",
"L  c #9E9347",
"P  c #9E964A",
"I  c #AD9646",
"U  c #A39B4B",
"Y  c #B39442",
"T  c #BC9641",
"R  c #ACA44F",
"E  c #B0A64F",
"W  c #B0A750",
"Q  c #B1A851",
"!  c #B2AA5F",
"~  c #BFB655",
"^  c #A8A266",
"/  c #B1AB66",
"(  c #CEAA47",
")  c #CFAD48",
"_  c #DFB047",
"`  c #D1B04A",
"'  c #C1B756",
"]  c #C5BA57",
"[  c #FCB040",
"{  c #FCB845",
"}  c #FDB64D",
"|  c #FCBD49",
" . c #EDBD77",
".. c #EDBE78",
"X. c #DDC253",
"o. c #FBC24D",
"O. c #E9C252",
"+. c #E8CC58",
"@. c #FBC750",
"#. c #FBCD54",
"$. c #F5D157",
"%. c #FAD65A",
"&. c #F1DA5F",
"*. c #F9DC5E",
"=. c #FDC36F",
"-. c #E7DB63",
";. c #F0DF62",
":. c #F9DF60",
">. c #FDCA7F",
",. c #F3E464",
"<. c #F9E464",
"1. c #F6E866",
"2. c #F8E967",
"3. c #F8EB68",
"4. c #F9ED77",
"5. c #F9EE7B",
"6. c #ACACAD",
"7. c #B4B3AF",
"8. c #B6B6B6",
"9. c #BBBABB",
"0. c #FDCC84",
"q. c #FED393",
"w. c #FED69C",
"e. c #F9EF84",
"r. c #FAF087",
"t. c #FAF18C",
"y. c #FAF191",
"u. c #FBF29C",
"i. c #FED9A3",
"p. c #FEDFB0",
"a. c #FBF3A0",
"s. c #FBF5AD",
"d. c #ECE7B2",
"f. c #FEE4BD",
"g. c #FCF6B4",
"h. c #D2D1D2",
"j. c #FEE6C1",
"k. c #FCF8CA",
"l. c #EEECDC",
"z. c #FDFAD2",
"x. c #FEFBDC",
"c. c #FFF5E6",
"v. c #FEFBE1",
"b. c #FEFCEE",
"n. c #FFFCF4",
"m. c #FFFFFF",
/* pixels */
"                                                                                                                                ",
"                                                                                                                                ",
"                                                                                                                                ",
"                                                X X X X X X X X X X X X X X X X                                                 ",
"                                                . . . . . . . . . . . . . . . .                                                 ",
"                                        X X X X . . 0 Q Q Q Q Q Q Q Q Y j 8 . . X X X X                                         ",
"                                      + . . . . . . R 3.3.3.3.3.3.3.3.#.[ f . . . . . . X                                       ",
"                                      4 5 5 5 5 5 5 ' 3.3.3.3.3.3.3.3.#.[ b 1 1 1 1 1 1 :                                       ",
"                              . . . . R 3.3.3.3.3.3.3.3.3.3.3.3.3.3.3.#.[ [ [ [ [ [ [ [ f . . . .                               ",
"                              . X - - ! 4.4.4.4.3.3.3.3.3.3.3.3.3.<.<.@.[ [ [ [ [ [ [ [ g & & & &                               ",
"                        X X X . % h.h.l.v.v.v.x.3.3.3.3.3.3.3.3.3.o.| { [ [ [ [ [ [ [ [ H V V V V ; X                           ",
"                        X . . . % m.m.m.m.m.m.n.3.3.3.3.3.3.3.3.3.{ [ [ [ [ [ [ [ [ [ [ [ [ [ [ [ ; . +                         ",
"                    + + K W / 8.9.m.m.m.m.m.m.n.3.3.3.3.3.3.3.3.3.{ [ [ [ [ [ [ [ [ [ [ [ [ [ [ [ b j e + +                     ",
"                    X . U 3.t.m.m.m.m.m.m.m.m.n.3.3.3.3.3.3.3.3.3.{ [ [ [ [ [ [ [ [ [ [ [ [ [ [ [ [ [ d . X                     ",
"                    X . ^ y.s.m.m.m.m.m.m.b.x.z.3.3.3.3.3.3.2.*.*.[ [ [ [ [ [ [ [ [ [ [ [ [ [ [ [ | o.T 6 5                     ",
"                . . . . 6.m.m.m.m.m.m.m.m.g.3.3.3.3.3.3.3.3.<.[ [ [ [ [ [ [ [ [ [ [ [ [ [ [ [ [ [ <.3.3.3.] X .                 ",
"                . X # $ 7.m.m.m.m.m.m.n.n.s.3.3.3.3.,.;.;.;.&.J J J J J J J [ [ [ [ [ [ [ [ [ { { <.3.3.3.] X .                 ",
"                . @ ] 3.k.m.m.m.m.m.m.u.3.3.3.3.3.3.B r r r r r r r r r r v [ [ [ [ [ [ [ [ [ 2.3.3.3.3.3.] X . . . X           ",
"                . @ ] 3.k.m.m.m.m.m.m.u.3.3.3.3.3.3.B r r r r r r r r r r v [ [ [ [ [ [ [ [ [ 2.3.3.3.3.3.] X . . . X           ",
"            X < Q Q d.k.b.m.m.m.m.u.u.5.3.X.x x x x D G G G G G G G G G G Z c c c c G [ | %.%.3.3.3.3.3.3.-.Q Q * . X           ",
"          + . < 3.3.x.m.m.m.m.m.n.3.3.3.3.) r r r r F [ [ [ [ [ [ [ [ [ [ F r r r r Z [ o.3.3.3.3.3.3.3.3.3.3.3.> . X           ",
"          + . < 3.3.x.m.m.m.b.g.s.3.3.X.( l r t N N H [ [ [ [ [ [ [ [ [ [ H N N t r s N _ 3.3.3.3.3.3.3.3.3.3.3.> . X           ",
"          + . < 3.4.x.m.m.m.x.3.3.3.3.C r r r u [ [ [ [ [ [ [ [ [ [ [ [ [ [ [ [ y r r r C 3.3.3.3.3.3.3.3.3.3.3.> . X           ",
"          X . < 3.3.x.m.n.n.z.3.3.3.3.C r u i a [ [ [ [ [ [ [ [ [ [ [ [ [ [ [ [ p i y r C 3.3.3.3.3.3.3.3.3.3.3.2 & &           ",
"      X . . . < 3.3.x.m.a.3.3.3.3.3.3.C r N [ [ [ [ [ [ [ [ [ [ [ [ [ [ [ [ [ [ [ [ n r C 3.3.3.3.3.3.3.3.3.3.3.| [ d . X       ",
"      X . . . < 3.3.x.m.a.3.3.3.3.3.3.C r N [ [ [ [ [ [ [ [ [ [ [ [ [ [ [ [ [ [ [ [ n r C 3.3.3.3.3.3.3.3.3.3.3.| [ d . X       ",
"      X . 9 Q ~ 3.3.t.u.5.3.3.3.1.x x D G H [ [ [ [ [ [ [ [ [ [ [ [ [ [ [ [ [ [ [ [ H G D x x 1.3.3.3.3.3.3.3.3.| [ d . X       ",
"      X . U 3.3.3.3.3.3.3.3.3.3.,.r r F [ [ [ [ [ [ [ [ [ [ [ [ [ [ [ [ [ [ [ [ [ [ [ [ A r r 1.3.3.3.3.3.3.3.3.| [ d . X       ",
"      X . U 3.3.3.3.3.3.3.3.3.3.,.r r S [ [ [ [ [ [ [ [ [ [ [ [ [ [ [ [ [ [ [ [ w.i.=.[ A r r 1.3.3.3.3.3.3.3.3.%.#.h . X       ",
"      X . U 3.3.3.3.3.3.3.3.3.3.,.r r F [ [ [ [ [ [ [ [ [ [ [ [ [ [ [ [ [ [ [ [ n.m.w.[ A r r 1.3.3.3.3.3.3.3.3.3.3.P . X       ",
"      X . U 3.3.4.4.4.4.3.3.3.3.,.r r F [ [ [ [ [ [ [ [ [ [ [ [ [ [ [ [ [ [ [ [ c.b.q.[ A r r 1.3.3.3.3.3.3.3.3.<.<.L . X       ",
"      X . U 3.r.m.m.m.m.a.3.3.3.,.r r F [ [ [ [ [ [ [ [ [ [ [ [ [ [ [ [ [ [ [ [ [ [ [ [ A r r 1.3.3.3.3.3.3.3.3.| [ d . X       ",
"      X . U 3.r.m.m.m.m.a.3.3.3.,.r r F [ [ [ [ [ [ [ [ [ [ [ [ [ [ [ [ [ [ [ [ [ [ [ [ A r r 1.3.3.3.3.3.3.3.3.| [ d . X       ",
"      X . U 3.r.m.m.m.m.a.3.3.3.,.r r F [ [ [ [ [ [ [ [ [ [ [ [ [ [ [ [ [ 0.n.n.n.n.q.[ A r r 1.3.3.3.3.3.3.3.3.| [ d . X       ",
"      X . U 3.r.m.m.m.m.a.3.3.3.,.r r F [ [ [ [ [ [ [ [ [ [ [ [ [ [ [ [ [ 0.m.m.m.m.w.[ A r r 1.3.3.3.3.3.3.3.3.| [ d . X       ",
"      X . U 3.4.g.g.g.g.e.3.3.3.,.r r F [ [ [ [ [ [ [ [ [ [ [ [ [ [ [ [ [ 0.m.m.m.m.w.[ A r r 1.3.3.3.3.3.3.3.3.| [ d . X       ",
"      X . U 3.3.3.3.3.3.3.3.3.3.,.r r F [ [ [ [ [ [ [ [ [ [ [ [ [ [ [ [ [ 0.m.m.m.m.w.[ A r r 1.3.3.3.3.3.3.3.3.| [ d . X       ",
"      X . U 3.3.3.3.3.3.3.3.3.3.1.v v Z F H [ [ [ [ [ [ [ [ [ [ [ >.0.0.0.p.m.m.j.f. .F D B B 1.3.3.3.3.3.3.3.3.| [ d . X       ",
"      X . U 3.3.3.3.3.3.3.3.3.3.2.[ [ v r N [ [ [ [ [ [ [ [ [ [ [ n.m.m.m.m.m.m.} [ n r C 3.3.3.3.3.3.3.3.3.3.3.| [ d . X       ",
"      X . U 3.3.3.3.3.3.3.3.3.3.2.[ [ v r N [ [ [ [ [ [ [ [ [ [ [ n.m.m.m.m.m.m.} [ n r C 3.3.3.3.3.3.3.3.3.3.3.| [ d . X       ",
"          $ # 6 3.3.3.3.3.3.:.{ { [ [ v r y u p [ [ [ [ [ [ [ [ [ n.m.m.m.j.} } p i t r C 3.3.3.3.3.3.3.3.*.{ { , O #           ",
"          + . < 3.3.3.3.3.3.:.[ [ [ [ v r r r u [ [ [ [ [ [ [ [ [ n.m.m.m.f.[ [ u r r r C 3.3.3.3.3.3.3.3.*.[ [ ; . X           ",
"          + . < 3.3.3.3.%.#.@.[ [ [ [ G N s r y N N H [ [ [ [ [ [ w.w.w.w...N N t r z ) X.3.3.3.3.3.3.3.3.*.[ [ ; . X           ",
"          + . < 3.3.3.3.o.[ [ [ [ [ [ [ [ Z r r r r F [ [ [ [ [ [ [ [ [ [ F r r r r ` 3.3.3.3.3.3.3.3.3.3.*.[ [ ; . X           ",
"          + . * R E +.%.| [ [ [ [ [ [ [ [ G v v v v Z F F F F F F F F F F D B B B B X.3.3.3.3.3.3.3.3.<.%.O.j g & . X           ",
"          + . . . o M [ [ [ [ [ [ [ [ [ [ [ [ [ [ [ v r r r r r r r r r r C 3.3.3.3.3.3.3.3.3.3.3.3.3.%.[ m X . . . X           ",
"          + . . . o M [ [ [ [ [ [ [ [ [ [ [ [ [ [ [ v r r r r r r r r r r C 3.3.3.3.3.3.3.3.3.3.3.3.3.%.[ m X . . . X           ",
"                . o M [ [ [ [ [ [ [ [ [ [ [ [ [ [ [ $.,.,.,.,.,.,.,.,.,.,.1.3.3.3.3.3.3.3.3.3.3.3.o.{ [ [ m X .                 ",
"                . o M [ [ [ [ [ [ [ [ [ [ [ [ [ [ [ %.3.3.3.3.3.3.3.3.3.3.3.3.3.3.3.3.3.3.3.3.3.3.| [ [ [ m X .                 ",
"                    , , l [ [ [ [ [ [ [ [ [ [ [ [ [ %.3.3.3.3.3.3.3.3.3.3.3.3.3.3.3.3.3.3.3.3.o.| [ [ k , :                     ",
"                    X . f [ [ [ [ [ [ [ [ [ [ [ [ [ %.3.3.3.3.3.3.3.3.3.3.3.3.3.3.3.3.3.3.3.3.[ [ [ [ d . X                     ",
"                    X X w g b [ [ [ [ [ [ [ [ [ o.o.*.3.3.3.3.3.3.3.3.3.3.3.3.3.3.3.3.3.<.%.%.[ [ b g q X X                     ",
"                        X . : [ [ [ [ [ [ [ [ { 3.3.3.3.3.3.3.3.3.3.3.3.3.3.3.3.3.3.3.3.%.[ [ [ [ ; . +                         ",
"                          X : V V V V H [ [ [ { 3.3.3.3.3.3.3.3.3.3.3.3.3.3.3.3.:.:.:.:.O.V V V V ; X                           ",
"                              # # # # j [ [ [ { 3.3.3.3.3.3.3.3.3.3.3.3.3.3.3.3.{ { { { j # # # #                               ",
"                              . . . . f [ [ [ { 3.3.3.3.3.3.3.3.3.3.3.3.3.3.3.3.{ [ [ [ f . . . .                               ",
"                                  . . = 1 1 1 7 | | *.3.3.3.3.3.3.o.| | | | | | 3 1 1 1 = . .                                   ",
"                                  . . . . . . O [ [ %.3.3.3.3.3.3.{ [ [ [ [ [ [ o . . . . . .                                   ",
"                                  X X X X X X # f f I R R R R R R f f f f f f f # X X X X X X                                   ",
"                                                . . . . . . . . . . . . . . . .                                                 ",
"                                                X X X X X X X X X X X X X X X X                                                 ",
"                                                                                                                                ",
"                                                                                                                                ",
"                                                                                                                                "
};
