/* XPM */
static char *_c7b3f4627914c2df893880e5b57e14dC15MLoNXnnAbG1lC[] = {
/* columns rows colors chars-per-pixel */
"64 64 8 1 ",
"  c #382F1C",
". c #070707",
"X c #FDFF00",
"o c #A84D00",
"O c #D28100",
"+ c #FFFFBB",
"@ c #EBBB00",
"# c #7F3707",
/* pixels */
"                                                                ",
"                                                                ",
"                                                                ",
"                                                                ",
"        ................................................        ",
"        ................................................        ",
"        ................................................        ",
"        ................................................        ",
"    ....XXXXXXXXooooOOOOooooXXXXXXXXooooOOOOooooXXXXXXXX....    ",
"    ....XXXXXXXXooooOOOOooooXXXXXXXXooooOOOOooooXXXXXXXX....    ",
"    ....XXXXXXXXooooOOOOooooXXXXXXXXooooOOOOooooXXXXXXXX....    ",
"    ....XXXXXXXXooooOOOOooooXXXXXXXXooooOOOOooooXXXXXXXX....    ",
"    ....++++++++OOOO@@@@OOOO++++++++OOOO@@@@OOOO++++++++....    ",
"    ....++++++++OOOO@@@@OOOO++++++++OOOO@@@@OOOO++++++++....    ",
"    ....++++++++OOOO@@@@OOOO++++++++OOOO@@@@OOOO++++++++....    ",
"    ....++++++++OOOO@@@@OOOO++++++++OOOO@@@@OOOO++++++++....    ",
"....OOOO++++++++OOOO@@@@OOOO++++++++OOOO@@@@OOOO++++++++OOOO....",
"....OOOO++++++++OOOO@@@@OOOO++++++++OOOO@@@@OOOO++++++++OOOO....",
"....OOOO++++++++OOOO@@@@OOOO++++++++OOOO@@@@OOOO++++++++OOOO....",
"....OOOO++++++++OOOO@@@@OOOO++++++++OOOO@@@@OOOO++++++++OOOO....",
"....@@@@XXXXXXXXooooOOOOooooXXXXXXXXooooOOOOooooXXXXXXXX@@@@....",
"....@@@@XXXXXXXXooooOOOOooooXXXXXXXXooooOOOOooooXXXXXXXX@@@@....",
"....@@@@XXXXXXXXooooOOOOooooXXXXXXXXooooOOOOooooXXXXXXXX@@@@....",
"....@@@@XXXXXXXXooooOOOOooooXXXXXXXXooooOOOOooooXXXXXXXX@@@@....",
"....OOOO@@@@@@@@####oooooooo@@@@@@@@oooooooo####@@@@@@@@OOOO....",
"....OOOO@@@@@@@@####oooooooo@@@@@@@@oooooooo####@@@@@@@@OOOO....",
"....OOOO@@@@@@@@####oooooooo@@@@@@@@oooooooo####@@@@@@@@OOOO....",
"....OOOO@@@@@@@@####oooooooo@@@@@@@@oooooooo####@@@@@@@@OOOO....",
"....XXXXOOOOOOOO########++++++++++++++++########OOOOOOOOXXXX....",
"....XXXXOOOOOOOO########++++++++++++++++########OOOOOOOOXXXX....",
"....XXXXOOOOOOOO########++++++++++++++++########OOOOOOOOXXXX....",
"....XXXXOOOOOOOO########++++++++++++++++########OOOOOOOOXXXX....",
"....++++++++++++++++++++XXXXXXXXXXXXXXXX++++++++++++++++++++....",
"....++++++++++++++++++++XXXXXXXXXXXXXXXX++++++++++++++++++++....",
"....++++++++++++++++++++XXXXXXXXXXXXXXXX++++++++++++++++++++....",
"....++++++++++++++++++++XXXXXXXXXXXXXXXX++++++++++++++++++++....",
"....OOOOOOOOOOOOOOOOOOOO@@@@........@@@@OOOOOOOOOOOOOOOOOOOO....",
"....OOOOOOOOOOOOOOOOOOOO@@@@........@@@@OOOOOOOOOOOOOOOOOOOO....",
"....OOOOOOOOOOOOOOOOOOOO@@@@........@@@@OOOOOOOOOOOOOOOOOOOO....",
"....OOOOOOOOOOOOOOOOOOOO@@@@........@@@@OOOOOOOOOOOOOOOOOOOO....",
"    ....oooooooo########OOOOOOOOOOOOOOOO########oooooooo....    ",
"    ....oooooooo########OOOOOOOOOOOOOOOO########oooooooo....    ",
"    ....oooooooo########OOOOOOOOOOOOOOOO########oooooooo....    ",
"    ....oooooooo########OOOOOOOOOOOOOOOO########oooooooo....    ",
"    ....OOOOOOOO####oooo################oooo####OOOOOOOO....    ",
"    ....OOOOOOOO####oooo################oooo####OOOOOOOO....    ",
"    ....OOOOOOOO####oooo################oooo####OOOOOOOO....    ",
"    ....OOOOOOOO####oooo################oooo####OOOOOOOO....    ",
"    ....OOOOOOOO####oooooooooooooooooooooooo####OOOOOOOO....    ",
"    ....OOOOOOOO####oooooooooooooooooooooooo####OOOOOOOO....    ",
"    ....OOOOOOOO####oooooooooooooooooooooooo####OOOOOOOO....    ",
"    ....OOOOOOOO####oooooooooooooooooooooooo####OOOOOOOO....    ",
"    ....oooooooo################################oooooooo....    ",
"    ....oooooooo################################oooooooo....    ",
"    ....oooooooo################################oooooooo....    ",
"    ....oooooooo################################oooooooo....    ",
"    ........................................................    ",
"    ........................................................    ",
"    ........................................................    ",
"    ........................................................    ",
"                                                                ",
"                                                                ",
"                                                                ",
"                                                                "
};
