/* XPM */
static char *d229783c59a14d7589827dec7b847c02N92xa2kofrArkCP7[] = {
/* columns rows colors chars-per-pixel */
"64 64 178 2 ",
"   c #382F1C",
".  c #111624",
"X  c #131826",
"o  c #141B2C",
"O  c #151B2C",
"+  c #1A1F31",
"@  c #1D2235",
"#  c #1F233B",
"$  c #212536",
"%  c #23263C",
"&  c #272B3B",
"*  c #292E3C",
"=  c #272739",
"-  c #2E323B",
";  c #32333F",
":  c #38373C",
">  c #2B2C45",
",  c #2E2F48",
"<  c #332C44",
"1  c #2F304A",
"2  c #2D3140",
"3  c #3C3C43",
"4  c #3C3D4B",
"5  c #363446",
"6  c #353451",
"7  c #393855",
"8  c #3D3B5A",
"9  c #4C3956",
"0  c #403E5E",
"q  c #4B3D5C",
"w  c #503D5B",
"e  c #3F4146",
"r  c #44444C",
"t  c #4C4E4E",
"y  c #574F4A",
"u  c #5A534B",
"i  c #57425D",
"p  c #4F5150",
"a  c #4D525E",
"s  c #5D5A54",
"d  c #5B515B",
"f  c #585756",
"g  c #63594C",
"h  c #605F59",
"j  c #635F56",
"k  c #62615A",
"l  c #686459",
"z  c #766754",
"x  c #454263",
"c  c #4B466A",
"v  c #4E496F",
"b  c #4F4665",
"n  c #574766",
"m  c #524C73",
"M  c #5E5077",
"N  c #5B537D",
"B  c #565078",
"V  c #644868",
"C  c #635E66",
"Z  c #685A6A",
"A  c #6B4F74",
"S  c #734F74",
"D  c #63537A",
"F  c #7C5778",
"G  c #686066",
"H  c #67646B",
"J  c #746F61",
"K  c #737064",
"L  c #636773",
"P  c #787378",
"I  c #747374",
"U  c #83725A",
"Y  c #80587F",
"T  c #847A66",
"R  c #937F60",
"E  c #83777A",
"W  c #8B737A",
"Q  c #86767B",
"!  c #917D7C",
"~  c #8A826C",
"^  c #958567",
"/  c #898470",
"(  c #928D76",
")  c #9D9478",
"_  c #A48F6C",
"`  c #A28B67",
"'  c #AF946A",
"]  c #B3976C",
"[  c #A29B7F",
"{  c #AA937C",
"}  c #B49A71",
"|  c #BCA479",
" . c #C4A474",
".. c #CAAA77",
"X. c #CCAD7B",
"o. c #C6A87A",
"O. c #CEB17E",
"+. c #D0B27F",
"@. c #5E5580",
"#. c #645781",
"$. c #6B5882",
"%. c #755B86",
"&. c #7C5F8A",
"*. c #7B7B80",
"=. c #82618D",
"-. c #89638F",
";. c #926886",
":. c #8D6491",
">. c #926693",
",. c #9B6996",
"<. c #9F6A98",
"1. c #A0798C",
"2. c #A36B99",
"3. c #AA6D9C",
"4. c #AF749D",
"5. c #B27A9D",
"6. c #B0729F",
"7. c #B57AA0",
"8. c #858488",
"9. c #94979F",
"0. c #A68A8A",
"q. c #A79688",
"w. c #B7889A",
"e. c #AA9997",
"r. c #A69896",
"t. c #BF909E",
"y. c #ACA485",
"u. c #BCAC83",
"i. c #B5AC8A",
"p. c #BEB18A",
"a. c #9598A1",
"s. c #B3A6A3",
"d. c #B6AAA7",
"f. c #BDAFAA",
"g. c #B9A8A5",
"h. c #ACADB1",
"j. c #AFB2B7",
"k. c #C3989F",
"l. c #CEAE8F",
"z. c #C5B58A",
"x. c #CBB98C",
"c. c #C8B486",
"v. c #D4B985",
"b. c #D1B688",
"n. c #CBA699",
"m. c #C7BD94",
"M. c #C59BA3",
"N. c #CBBCB4",
"B. c #D0BFB4",
"V. c #DAC28D",
"C. c #DBC592",
"Z. c #DBC89A",
"A. c #E0CA95",
"S. c #E3D09B",
"D. c #CDC7B9",
"F. c #D2C0B5",
"G. c #D4C4B9",
"H. c #DBCBBD",
"J. c #E1CBA3",
"K. c #ECDDA6",
"L. c #E7D2AA",
"P. c #ECDEAA",
"I. c #E6D6A4",
"U. c #EFE1AB",
"Y. c #F2E4AC",
"T. c #F2E6B3",
"R. c #F5EABE",
"E. c #DABFC2",
"W. c #CECFCF",
"Q. c #DFC8D2",
"!. c #E3D1C0",
"~. c #EAD7C4",
"^. c #F2DEC8",
"/. c #F5E1CA",
"(. c #F8F0CE",
"). c #EAE7D9",
"_. c #EEE5EB",
"`. c #F9F5E3",
/* pixels */
"                                                                                                                                ",
"                                                                                                                                ",
"                                                                                                                                ",
"                                                                                                                                ",
"                                                                                                                                ",
"                                                                                                                                ",
"                                                                                                                                ",
"                                                                                                                                ",
"                                                                                                                                ",
"                                                                                                                                ",
"                                                                                                                                ",
"                                                                                                                                ",
"                                                                                                                                ",
"                                                                                                                                ",
"                                                                                                                                ",
"                                                                                                                                ",
"                                                    @ b &.%.$.                                                                  ",
"                                                  % x $.2.2.,.-.#.                                                              ",
"                                                o 8 $.,.3.,.=.,.:.                                                              ",
"                                                $ m =.2.2.3.<.&.,.&.                                                            ",
"                                                , N D b v &.3.:.-.%.                                                            ",
"                                                > N N 0 @ 6 >.2.%.q                                                             ",
"                                            + > % x @.B > @ D >.m ;                                                             ",
"                                          o 7 N c 6 N 7 U U b #.Z ` | X.                  /.F.                                  ",
"                                          o x @.m 8 v & _ X.{ { o.V.A.X.              /.!.H.e.                                  ",
"                                            8 @.N N x l y j ~ z.K.P.I.C...            ^.G.F.e.                                  ",
"                                            % c N m r c. .} Z.P.U.( i.K.O.          /./.~.N.e.                                  ",
"                                              @ , # s v...O.K.U.Y.K k U.^           !.^.!.d.E                                   ",
"                                                O O J O. .v.P.U.Y.[ ; y.3         ~.N.!.F.P                                     ",
"                                            *     @ ) X.v.x.T h k r + $ 3 3       G.N.H.s.4                                     ",
"                                          & 9.L o - u...+.C.p./ t * + t p.s     4 s.B.F.P                                       ",
"                                          k I j.a.a T ^ ' ' | V.Z.p.3 p.v.z     C f.s.s.4                                       ",
"                                          ! w.q.D.).W.h.8.*.f ] X.x.t z.X.U   2 r.g.f.P o                                       ",
"                                          W 6.5.k.P.R.(.`._.Z ] ..z.p x._ : X H s.r.d.4                                         ",
"                                          W 4.3.5.L.U.U.T.Q.i ^ ..C.m.u.3 > < C G Q Q $                                         ",
"                                          ! 7.3.5.Z.K.U.Y.E.w 5 y T ^ d S < V V , d 3                                           ",
"                                          [ L.k.w.b.V.P.U.M.n Y S w 9 F i $ 3 6 0 8 $ 9 9                                       ",
"                                          ) Y.V.l.n.n.J.K.0.w M =.>.=.M c 4 g z y > 7 A V                                       ",
"                                          k I.S.O.t.3.4.W Z w m N N N @.m , ; R u X @ 5 =                                       ",
"                                            y.Y.C.t.3.3.1.n w m N N N v 1 7 0 $                                                 ",
"                                            f m.I.5.3.5.0.V < > 1 1 > @ o % ,                                                   ",
"                                              t q.;.7.0.r = X . . . . O o X                                                     ",
"                                                = F q.e X               O                                                       ",
"                                                  3 3 .                                                                         ",
"                                                                                                                                ",
"                                                                                                                                ",
"                                                                                                                                ",
"                                                                                                                                ",
"                                                                                                                                ",
"                                                                                                                                ",
"                                                                                                                                ",
"                                                                                                                                ",
"                                                                                                                                ",
"                                                                                                                                ",
"                                                                                                                                ",
"                                                                                                                                ",
"                                                                                                                                ",
"                                                                                                                                ",
"                                                                                                                                ",
"                                                                                                                                ",
"                                                                                                                                ",
"                                                                                                                                ",
"                                                                                                                                ",
"                                                                                                                                "
};
