/* XPM */
static char *_cec5ae931fd4171a32a843d81b510edfxpCblsF8SeR7I2j[] = {
/* columns rows colors chars-per-pixel */
"64 64 178 2 ",
"   c #382F1C",
".  c #1D2235",
"X  c #4F4665",
"o  c #7C5F8A",
"O  c #755B86",
"+  c #6B5882",
"@  c #23263C",
"#  c #454263",
"$  c #A36B99",
"%  c #9B6996",
"&  c #89638F",
"*  c #645781",
"=  c #141B2C",
"-  c #3D3B5A",
";  c #AA6D9C",
":  c #82618D",
">  c #8D6491",
",  c #212536",
"<  c #524C73",
"1  c #9F6A98",
"2  c #2E2F48",
"3  c #5B537D",
"4  c #63537A",
"5  c #4E496F",
"6  c #2B2C45",
"7  c #403E5E",
"8  c #353451",
"9  c #926693",
"0  c #4B3D5C",
"q  c #1A1F31",
"w  c #5E5580",
"e  c #565078",
"r  c #32333F",
"t  c #393855",
"y  c #4B466A",
"u  c #83725A",
"i  c #685A6A",
"p  c #A28B67",
"a  c #BCA479",
"s  c #CCAD7B",
"d  c #F5E1CA",
"f  c #D2C0B5",
"g  c #272B3B",
"h  c #A48F6C",
"j  c #AA937C",
"k  c #C6A87A",
"l  c #DAC28D",
"z  c #E0CA95",
"x  c #E3D1C0",
"c  c #DBCBBD",
"v  c #AA9997",
"b  c #686459",
"n  c #574F4A",
"m  c #635F56",
"M  c #8A826C",
"N  c #C5B58A",
"B  c #ECDDA6",
"V  c #ECDEAA",
"C  c #E6D6A4",
"Z  c #DBC592",
"A  c #CAAA77",
"S  c #F2DEC8",
"D  c #D4C4B9",
"F  c #44444C",
"G  c #C8B486",
"H  c #C4A474",
"J  c #B49A71",
"K  c #DBC89A",
"L  c #EFE1AB",
"P  c #928D76",
"I  c #B5AC8A",
"U  c #CEB17E",
"Y  c #EAD7C4",
"T  c #CBBCB4",
"R  c #1F233B",
"E  c #5D5A54",
"W  c #D4B985",
"Q  c #F2E4AC",
"!  c #737064",
"~  c #62615A",
"^  c #958567",
"/  c #B6AAA7",
"(  c #83777A",
")  c #151B2C",
"_  c #746F61",
"`  c #A29B7F",
"'  c #ACA485",
"]  c #3C3C43",
"[  c #787378",
"{  c #292E3C",
"}  c #9D9478",
"|  c #CBB98C",
" . c #847A66",
".. c #605F59",
"X. c #B3A6A3",
"o. c #3C3D4B",
"O. c #94979F",
"+. c #636773",
"@. c #2E323B",
"#. c #BCAC83",
"$. c #D0B27F",
"%. c #BEB18A",
"&. c #898470",
"*. c #4C4E4E",
"=. c #D0BFB4",
"-. c #747374",
";. c #AFB2B7",
":. c #9598A1",
">. c #4D525E",
",. c #AF946A",
"<. c #766754",
"1. c #635E66",
"2. c #BDAFAA",
"3. c #917D7C",
"4. c #B7889A",
"5. c #A79688",
"6. c #CDC7B9",
"7. c #EAE7D9",
"8. c #CECFCF",
"9. c #ACADB1",
"0. c #858488",
"q. c #7B7B80",
"w. c #585756",
"e. c #B3976C",
"r. c #2D3140",
"t. c #A69896",
"y. c #B9A8A5",
"u. c #8B737A",
"i. c #B0729F",
"p. c #B27A9D",
"a. c #C3989F",
"s. c #F5EABE",
"d. c #F8F0CE",
"f. c #F9F5E3",
"g. c #EEE5EB",
"h. c #4F5150",
"j. c #38373C",
"k. c #131826",
"l. c #67646B",
"z. c #AF749D",
"x. c #E7D2AA",
"c. c #F2E6B3",
"v. c #DFC8D2",
"b. c #57425D",
"n. c #C7BD94",
"m. c #332C44",
"M. c #686066",
"N. c #86767B",
"B. c #B57AA0",
"V. c #DABFC2",
"C. c #503D5B",
"Z. c #363446",
"A. c #5B515B",
"S. c #734F74",
"D. c #644868",
"F. c #D1B688",
"G. c #C59BA3",
"H. c #574766",
"J. c #80587F",
"K. c #4C3956",
"L. c #7C5778",
"P. c #CEAE8F",
"I. c #CBA699",
"U. c #E1CBA3",
"Y. c #A68A8A",
"T. c #5E5077",
"R. c #63594C",
"E. c #6B4F74",
"W. c #E3D09B",
"Q. c #BF909E",
"!. c #937F60",
"~. c #5A534B",
"^. c #272739",
"/. c #A0798C",
"(. c #2F304A",
"). c #926886",
"_. c #111624",
"`. c #3F4146",
/* pixels */
"                                                                                                                                ",
"                            . . X X X o o O O + +                                                                               ",
"                            . . X X X o o O O + +                                                                               ",
"                        @ @ # # + + + $ $ $ $ % % & & & * *                                                                     ",
"                        @ @ # # + + + $ $ $ $ % % & & & * *                                                                     ",
"                    = = - - + + % % % ; ; % % : : % % % > >                                                                     ",
"                    = = - - + + % % % ; ; % % : : % % % > >                                                                     ",
"                    = = - - + + % % % ; ; % % : : % % % > >                                                                     ",
"                    , , < < : : $ $ $ $ $ ; ; 1 1 o o o % % o o                                                                 ",
"                    , , < < : : $ $ $ $ $ ; ; 1 1 o o o % % o o                                                                 ",
"                    2 2 3 3 4 4 X X X 5 5 o o ; ; > > > & & O O                                                                 ",
"                    2 2 3 3 4 4 X X X 5 5 o o ; ; > > > & & O O                                                                 ",
"                    6 6 3 3 3 3 7 7 7 . . 8 8 9 9 $ $ $ O O 0 0                                                                 ",
"                    6 6 3 3 3 3 7 7 7 . . 8 8 9 9 $ $ $ O O 0 0                                                                 ",
"          q q 6 6 6 @ @ # # w w e e e 6 6 . . 4 4 9 9 9 < < r r                                                                 ",
"          q q 6 6 6 @ @ # # w w e e e 6 6 . . 4 4 9 9 9 < < r r                                                                 ",
"          q q 6 6 6 @ @ # # w w e e e 6 6 . . 4 4 9 9 9 < < r r                                                                 ",
"      = = t t 3 3 3 y y 8 8 3 3 t t t u u u u X X * * * i i p p a a s s                                           d d f f       ",
"      = = t t 3 3 3 y y 8 8 3 3 t t t u u u u X X * * * i i p p a a s s                                           d d f f       ",
"      = = # # w w w < < - - 5 5 g g g h h s s j j j j j k k l l z z s s                                 d d x x x c c v v       ",
"      = = # # w w w < < - - 5 5 g g g h h s s j j j j j k k l l z z s s                                 d d x x x c c v v       ",
"          - - w w w 3 3 3 3 # # b b b n n m m M M N N N B B V V C C Z Z A A A                           S S D D D f f v v       ",
"          - - w w w 3 3 3 3 # # b b b n n m m M M N N N B B V V C C Z Z A A A                           S S D D D f f v v       ",
"          @ @ y y y 3 3 < < F F G G G H H J J K K V V V L L P P I I B B U U U                       d d d d Y Y Y T T v v       ",
"          @ @ y y y 3 3 < < F F G G G H H J J K K V V V L L P P I I B B U U U                       d d d d Y Y Y T T v v       ",
"          @ @ y y y 3 3 < < F F G G G H H J J K K V V V L L P P I I B B U U U                       d d d d Y Y Y T T v v       ",
"              . . . 2 2 R R E E W W W A A U U B B L L L Q Q ! ! ~ ~ L L ^ ^ ^                       x x S S x x x / / ( (       ",
"              . . . 2 2 R R E E W W W A A U U B B L L L Q Q ! ! ~ ~ L L ^ ^ ^                       x x S S x x x / / ( (       ",
"                    ) ) ) ) _ _ U U U H H W W V V L L L Q Q ` ` r r ' ' ] ] ]                   Y Y T T x x f f f [ [           ",
"                    ) ) ) ) _ _ U U U H H W W V V L L L Q Q ` ` r r ' ' ] ] ]                   Y Y T T x x f f f [ [           ",
"          { {           . . } } s s s W W | |  . .......~ ~ F F q q , , ] ] ] ] ]               D D T T c c X.X.X.o.o.          ",
"          { {           . . } } s s s W W | |  . .......~ ~ F F q q , , ] ] ] ] ]               D D T T c c X.X.X.o.o.          ",
"      g g O.O.+.+.+.= = @.@.#.#.A A A $.$.Z Z %.%.&.&.&.*.*.{ { q q *.*.%.%.%.E E         o.o.o.X.X.=.=.f f [ [ [               ",
"      g g O.O.+.+.+.= = @.@.#.#.A A A $.$.Z Z %.%.&.&.&.*.*.{ { q q *.*.%.%.%.E E         o.o.o.X.X.=.=.f f [ [ [               ",
"      ~ ~ -.-.;.;.;.:.:.>.>. . .^ ^ ^ ,.,.,.,.a a l l l K K %.%.] ] %.%.W W W <.<.        1.1.1.2.2.X.X.X.X.o.o.o.              ",
"      ~ ~ -.-.;.;.;.:.:.>.>. . .^ ^ ^ ,.,.,.,.a a l l l K K %.%.] ] %.%.W W W <.<.        1.1.1.2.2.X.X.X.X.o.o.o.              ",
"      ~ ~ -.-.;.;.;.:.:.>.>. . .^ ^ ^ ,.,.,.,.a a l l l K K %.%.] ] %.%.W W W <.<.        1.1.1.2.2.X.X.X.X.o.o.o.              ",
"      3.3.4.4.5.5.5.6.6.7.7.8.8.9.9.9.0.0.q.q.w.w.e.e.e.s s | | *.*.N N s s s u u     r.r.t.t.t.y.y.2.2.[ [ = = =               ",
"      3.3.4.4.5.5.5.6.6.7.7.8.8.9.9.9.0.0.q.q.w.w.e.e.e.s s | | *.*.N N s s s u u     r.r.t.t.t.y.y.2.2.[ [ = = =               ",
"      u.u.i.i.p.p.p.a.a.V V s.s.d.d.d.f.f.g.g.i i e.e.e.A A N N h.h.| | h h h j.j.k.k.l.l.X.X.X.t.t./ / o.o.                    ",
"      u.u.i.i.p.p.p.a.a.V V s.s.d.d.d.f.f.g.g.i i e.e.e.A A N N h.h.| | h h h j.j.k.k.l.l.X.X.X.t.t./ / o.o.                    ",
"      u.u.z.z.; ; ; p.p.x.x.L L L L L c.c.v.v.b.b.^ ^ ^ A A Z Z n.n.#.#.] ] ] 6 6 m.m.1.1.M.M.M.N.N.N.N., ,                     ",
"      u.u.z.z.; ; ; p.p.x.x.L L L L L c.c.v.v.b.b.^ ^ ^ A A Z Z n.n.#.#.] ] ] 6 6 m.m.1.1.M.M.M.N.N.N.N., ,                     ",
"      3.3.B.B.; ; ; p.p.K K B B L L L Q Q V.V.C.C.Z.Z.Z.n n  . .^ ^ A.A.S.S.S.m.m.D.D.D.D.2 2 2 A.A.] ]                         ",
"      3.3.B.B.; ; ; p.p.K K B B L L L Q Q V.V.C.C.Z.Z.Z.n n  . .^ ^ A.A.S.S.S.m.m.D.D.D.D.2 2 2 A.A.] ]                         ",
"      3.3.B.B.; ; ; p.p.K K B B L L L Q Q V.V.C.C.Z.Z.Z.n n  . .^ ^ A.A.S.S.S.m.m.D.D.D.D.2 2 2 A.A.] ]                         ",
"      ` ` x.x.a.a.a.4.4.F.F.l l V V V L L G.G.H.H.J.J.J.S.S.C.C.K.K.L.L.b.b.b., , ] ] 8 8 7 7 7 - - , , K.K.K.K.K.              ",
"      ` ` x.x.a.a.a.4.4.F.F.l l V V V L L G.G.H.H.J.J.J.S.S.C.C.K.K.L.L.b.b.b., , ] ] 8 8 7 7 7 - - , , K.K.K.K.K.              ",
"      } } Q Q l l l P.P.I.I.I.I.U.U.U.B B Y.Y.C.C.T.T.T.: : 9 9 : : T.T.y y y o.o.R.R.<.<.n n n 6 6 t t E.E.D.D.D.              ",
"      } } Q Q l l l P.P.I.I.I.I.U.U.U.B B Y.Y.C.C.T.T.T.: : 9 9 : : T.T.y y y o.o.R.R.<.<.n n n 6 6 t t E.E.D.D.D.              ",
"      ~ ~ C C W.W.W.U U Q.Q.; ; z.z.z.u.u.i i C.C.< < < 3 3 3 3 3 3 w w < < < 2 2 r r !.!.~.~.~.k.k.. . Z.Z.^.^.^.              ",
"      ~ ~ C C W.W.W.U U Q.Q.; ; z.z.z.u.u.i i C.C.< < < 3 3 3 3 3 3 w w < < < 2 2 r r !.!.~.~.~.k.k.. . Z.Z.^.^.^.              ",
"          ' ' Q Q Q Z Z Q.Q.; ; ; ; ; /./.H.H.C.C.< < < 3 3 3 3 3 3 5 5 (.(.(.t t 7 7 , ,                                       ",
"          ' ' Q Q Q Z Z Q.Q.; ; ; ; ; /./.H.H.C.C.< < < 3 3 3 3 3 3 5 5 (.(.(.t t 7 7 , ,                                       ",
"          ' ' Q Q Q Z Z Q.Q.; ; ; ; ; /./.H.H.C.C.< < < 3 3 3 3 3 3 5 5 (.(.(.t t 7 7 , ,                                       ",
"          w.w.n.n.n.C C p.p.; ; p.p.p.Y.Y.D.D.m.m.6 6 6 (.(.(.(.6 6 . . = = = @ @ 2 2                                           ",
"          w.w.n.n.n.C C p.p.; ; p.p.p.Y.Y.D.D.m.m.6 6 6 (.(.(.(.6 6 . . = = = @ @ 2 2                                           ",
"              *.*.*.5.5.).).B.B.Y.Y.Y.F F ^.^.k.k._._._._._._._._._.) ) = = = k.k.                                              ",
"              *.*.*.5.5.).).B.B.Y.Y.Y.F F ^.^.k.k._._._._._._._._._.) ) = = = k.k.                                              ",
"                    ^.^.L.L.5.5.`.`.`.k.k.                              ) ) )                                                   ",
"                    ^.^.L.L.5.5.`.`.`.k.k.                              ) ) )                                                   ",
"                        ] ] ] ] _._._.                                                                                          ",
"                        ] ] ] ] _._._.                                                                                          ",
"                                                                                                                                "
};
